<svg xmlns="http://www.w3.org/2000/svg" width="138" height="135" viewBox="0 0 138 135" fill="none"><g clip-path="url(#clip0_1_12852)"><path d="M63.25 50.625H74.75V33.75H92V22.5H74.75V5.625H63.25V22.5H46V33.75H63.25V50.625ZM40.25 101.25C33.925 101.25 28.8075 106.312 28.8075 112.5C28.8075 118.688 33.925 123.75 40.25 123.75C46.575 123.75 51.75 118.688 51.75 112.5C51.75 106.312 46.575 101.25 40.25 101.25ZM97.75 101.25C91.425 101.25 86.3075 106.312 86.3075 112.5C86.3075 118.688 91.425 123.75 97.75 123.75C104.075 123.75 109.25 118.688 109.25 112.5C109.25 106.312 104.075 101.25 97.75 101.25ZM46.575 73.125H89.4125C93.725 73.125 97.52 70.8187 99.475 67.3313L121.67 27.9L111.665 22.5L89.4125 61.875H49.0475L24.5525 11.25H5.75V22.5H17.25L37.95 65.1938L30.1875 78.9187C25.99 86.4562 31.51 95.625 40.25 95.625H109.25V84.375H40.25L46.575 73.125Z" fill="#5E87FB" fill-opacity="0.15"></path></g><defs><clipPath id="clip0_1_12852"><rect width="138" height="135" fill="white"></rect></clipPath></defs></svg>