<svg xmlns="http://www.w3.org/2000/svg" width="182" height="179" viewBox="0 0 182 179" fill="none"><path d="M151.667 39.8333C151.667 35.1192 151.667 32.7622 150.202 31.2977C148.738 29.8333 146.381 29.8333 141.667 29.8333H40.3333C35.6192 29.8333 33.2622 29.8333 31.7977 31.2977C30.3333 32.7622 30.3333 35.1192 30.3333 39.8333V147.167C30.3333 148.109 30.3333 148.581 30.6261 148.874C30.919 149.167 31.3904 149.167 32.3333 149.167H141.667C146.381 149.167 148.738 149.167 150.202 147.702C151.667 146.238 151.667 143.881 151.667 139.167V39.8333Z" fill="#5E87FB" fill-opacity="0.1"></path><path d="M64.4583 63.3958H117.542" stroke="#222222" stroke-linecap="round" stroke-linejoin="round"></path><path d="M64.4583 85.7708H102.375" stroke="#222222" stroke-linecap="round" stroke-linejoin="round"></path><path d="M143.583 115.604C143.583 125.618 135.327 133.75 125.125 133.75C114.923 133.75 106.667 125.618 106.667 115.604C106.667 105.59 114.923 97.4583 125.125 97.4583C135.327 97.4583 143.583 105.59 143.583 115.604Z" stroke="#222222"></path><path d="M144.083 134.25L155.458 145.438" stroke="#222222" stroke-linecap="round"></path></svg>