<svg xmlns="http://www.w3.org/2000/svg" width="184" height="183" viewBox="0 0 184 183" fill="none"><rect x="46" y="38.125" width="92" height="114.375" rx="2" fill="#5E87FB" fill-opacity="0.1"></rect><path d="M72.8333 72.4375L111.167 72.4375" stroke="#222222" stroke-linecap="round"></path><path d="M72.8333 95.3125L111.167 95.3125" stroke="#222222" stroke-linecap="round"></path><path d="M72.8333 118.188L111.167 118.188" stroke="#222222" stroke-linecap="round"></path><path d="M61.3333 31.5C61.3333 30.9477 61.781 30.5 62.3333 30.5H121.667C122.219 30.5 122.667 30.9477 122.667 31.5V37.975C122.667 38.0578 122.599 38.125 122.517 38.125H115.5C115.224 38.125 115 38.3489 115 38.625V45.6C115 45.6828 114.933 45.75 114.85 45.75H69.1499C69.0671 45.75 68.9999 45.6828 68.9999 45.6V38.625C68.9999 38.3489 68.7761 38.125 68.4999 38.125H61.4833C61.4004 38.125 61.3333 38.0578 61.3333 37.975V31.5Z" fill="#222222" fill-opacity="0.5"></path></svg>