<svg xmlns="http://www.w3.org/2000/svg" width="183" height="180" viewBox="0 0 183 180" fill="none"><path d="M23 60H157.05C158.17 60 158.73 60 159.158 60.218C159.534 60.4097 159.84 60.7157 160.032 61.092C160.25 61.5198 160.25 62.0799 160.25 63.2V146.8C160.25 147.92 160.25 148.48 160.032 148.908C159.84 149.284 159.534 149.59 159.158 149.782C158.73 150 158.17 150 157.05 150H26.2C25.0799 150 24.5198 150 24.092 149.782C23.7157 149.59 23.4097 149.284 23.218 148.908C23 148.48 23 147.92 23 146.8V60Z" fill="#5E87FB" fill-opacity="0.1"></path><path d="M22.875 41.5C22.875 39.6144 22.875 38.6716 23.4608 38.0858C24.0466 37.5 24.9894 37.5 26.875 37.5H74.6125C75.4207 37.5 75.8248 37.5 76.189 37.6491C76.5532 37.7982 76.8412 38.0816 77.4174 38.6483L99.125 60H22.875V41.5Z" fill="#5E87FB" fill-opacity="0.1"></path><path d="M68.625 105H91.5M91.5 105H114.375M91.5 105V127.5M91.5 105V82.5" stroke="#222222"></path></svg>