<svg xmlns="http://www.w3.org/2000/svg" width="48" height="47" viewBox="0 0 48 47" fill="none"><path d="M42.75 9.33333H33.25V4.66667C33.25 2.1 31.1125 0 28.5 0H19C16.3875 0 14.25 2.1 14.25 4.66667V9.33333H4.75C2.1375 9.33333 0 11.4333 0 14V42C0 44.5667 2.1375 46.6667 4.75 46.6667H42.75C45.3625 46.6667 47.5 44.5667 47.5 42V14C47.5 11.4333 45.3625 9.33333 42.75 9.33333ZM19 4.66667H28.5V9.33333H19V4.66667ZM42.75 42H4.75V14H42.75V42Z" fill="#4E74F7"></path><path d="M26.125 18.6667H21.375V25.6667H14.25V30.3334H21.375V37.3334H26.125V30.3334H33.25V25.6667H26.125V18.6667Z" fill="#4E74F7"></path></svg>