<svg xmlns="http://www.w3.org/2000/svg" width="73" height="51" viewBox="0 0 73 51" fill="none"><path fill-rule="evenodd" clip-rule="evenodd" d="M63.8705 20.1565H25.7002C24.5768 20.1565 23.5054 19.7066 22.7196 18.9156L25.3041 16.3483C25.4092 16.4541 25.5518 16.5137 25.7002 16.5137H63.8705C67.8277 16.5137 71.0356 19.7483 71.0356 23.7385C71.0356 27.7289 67.8277 30.9636 63.8705 30.9636H20.1671C19.6227 30.9636 19.1006 30.7458 18.7154 30.358L3.94695 15.4897C1.11274 12.6362 1.11274 8.00522 3.94695 5.15177C6.77481 2.30488 11.355 2.30488 14.1828 5.15177L25.3041 16.3483L22.7196 18.9156L11.5982 7.71908C10.195 6.30619 7.93479 6.30619 6.5315 7.71908C5.10837 9.15181 5.10837 11.4896 6.5315 12.9225L20.8332 27.3207H63.8705C65.7873 27.3207 67.3927 25.7456 67.3927 23.7385C67.3927 21.7315 65.7871 20.1565 63.8705 20.1565Z" fill="#4E74F7"></path><path d="M5.46387 16.3931L9.10672 18.5456V40.0716H5.46387V16.3931Z" fill="#4E74F7"></path><path d="M61.9287 30.0962H65.5716V40.4341H61.9287V30.0962Z" fill="#4E74F7"></path><path fill-rule="evenodd" clip-rule="evenodd" d="M72.8572 40.0713H0V36.4285H72.8572V40.0713Z" fill="#4E74F7"></path><path fill-rule="evenodd" clip-rule="evenodd" d="M8.19629 47.3571C9.70522 47.3571 10.9284 46.1339 10.9284 44.625C10.9284 43.1161 9.70522 41.8929 8.19629 41.8929C6.68736 41.8929 5.46415 43.1161 5.46415 44.625C5.46415 46.1339 6.68736 47.3571 8.19629 47.3571ZM8.19629 51C11.7171 51 14.5713 48.1458 14.5713 44.625C14.5713 41.1042 11.7171 38.25 8.19629 38.25C4.67547 38.25 1.82129 41.1042 1.82129 44.625C1.82129 48.1458 4.67547 51 8.19629 51Z" fill="#4E74F7"></path><path fill-rule="evenodd" clip-rule="evenodd" d="M64.6611 47.3571C66.17 47.3571 67.3933 46.1339 67.3933 44.625C67.3933 43.1161 66.17 41.8929 64.6611 41.8929C63.1523 41.8929 61.929 43.1161 61.929 44.625C61.929 46.1339 63.1523 47.3571 64.6611 47.3571ZM64.6611 51C68.182 51 71.0361 48.1458 71.0361 44.625C71.0361 41.1042 68.182 38.25 64.6611 38.25C61.1403 38.25 58.2861 41.1042 58.2861 44.625C58.2861 48.1458 61.1403 51 64.6611 51Z" fill="#4E74F7"></path><path fill-rule="evenodd" clip-rule="evenodd" d="M12.3191 2.00975C15.0024 -0.671209 19.3513 -0.669717 22.0326 2.01303L25.3115 5.29361C27.9932 7.97657 27.9918 12.3251 25.3082 15.0062L22.6307 17.6813L20.056 15.1044L22.7335 12.4292C23.9935 11.1703 23.9943 9.12863 22.7351 7.86893L19.4562 4.58835C18.1968 3.32828 16.1541 3.32756 14.8939 4.58671L12.2164 7.26184L9.6416 4.68488L12.3191 2.00975Z" fill="#4E74F7"></path></svg>