<svg xmlns="http://www.w3.org/2000/svg" width="52" height="52" viewBox="0 0 52 52" fill="none"><path fill-rule="evenodd" clip-rule="evenodd" d="M36.4 52H5.2C2.32812 52 0 49.6718 0 46.8V5.2C0 2.32812 2.32812 0 5.2 0H36.4C39.2718 0 41.6 2.32812 41.6 5.2V46.8C41.6 49.6718 39.2718 52 36.4 52ZM18.2 11.7C18.2 10.982 18.782 10.4 19.5 10.4H35.1C35.818 10.4 36.4 10.982 36.4 11.7C36.4 12.418 35.818 13 35.1 13H19.5C18.782 13 18.2 12.418 18.2 11.7ZM19.5 15.6C18.782 15.6 18.2 16.182 18.2 16.9C18.2 17.618 18.782 18.2 19.5 18.2H35.1C35.818 18.2 36.4 17.618 36.4 16.9C36.4 16.182 35.818 15.6 35.1 15.6H19.5ZM15.2192 10.7808C15.7269 11.2884 15.7269 12.1116 15.2192 12.6192L9.1 18.7385L5.58076 15.2192C5.07308 14.7116 5.07308 13.8884 5.58076 13.3808C6.08845 12.8731 6.91155 12.8731 7.41924 13.3808L9.1 15.0615L13.3808 10.7808C13.8884 10.2731 14.7116 10.2731 15.2192 10.7808ZM19.5 26C18.782 26 18.2 26.582 18.2 27.3C18.2 28.018 18.782 28.6 19.5 28.6H35.1C35.818 28.6 36.4 28.018 36.4 27.3C36.4 26.582 35.818 26 35.1 26H19.5ZM18.2 32.5C18.2 31.782 18.782 31.2 19.5 31.2H35.1C35.818 31.2 36.4 31.782 36.4 32.5C36.4 33.218 35.818 33.8 35.1 33.8H19.5C18.782 33.8 18.2 33.218 18.2 32.5ZM13 26H6.5C5.78204 26 5.2 26.582 5.2 27.3V33.8C5.2 34.518 5.78204 35.1 6.5 35.1H13C13.718 35.1 14.3 34.518 14.3 33.8V27.3C14.3 26.582 13.718 26 13 26Z" fill="#4E74F7"></path><path fill-rule="evenodd" clip-rule="evenodd" d="M52.0002 46.8001L48.1002 52.0001L44.2002 46.8001V23.4001H52.0002V46.8001Z" fill="#4E74F7"></path><path fill-rule="evenodd" clip-rule="evenodd" d="M46.8002 14.3H49.4002C50.8362 14.3 52.0002 15.4641 52.0002 16.9V22.1H44.2002V16.9C44.2002 15.4641 45.3642 14.3 46.8002 14.3Z" fill="#4E74F7"></path></svg>