<svg xmlns="http://www.w3.org/2000/svg" width="70" height="70" viewBox="0 0 70 70" fill="none"><path d="M61.25 31.4999C61.25 35.2916 60.375 39.0833 58.625 42.5833C54.5417 51.0416 45.7917 56.2916 36.4583 56.2916C32.6667 56.2916 28.875 55.4166 25.375 53.6666L8.75 59.2083L14.2917 42.5833C12.5417 39.0833 11.6667 35.2916 11.6667 31.4999C11.6667 22.1666 16.9167 13.4166 25.375 9.33325C28.875 7.58325 32.6667 6.70825 36.4583 6.70825H37.9167C50.4583 7.29159 60.6667 17.4999 61.25 30.0416V31.4999Z" stroke="#70B2FF" stroke-width="1.45833" stroke-linecap="round" stroke-linejoin="round"></path><path d="M27.1253 32.0834C27.9307 32.0834 28.5837 31.4305 28.5837 30.6251C28.5837 29.8197 27.9307 29.1667 27.1253 29.1667C26.3199 29.1667 25.667 29.8197 25.667 30.6251C25.667 31.4305 26.3199 32.0834 27.1253 32.0834Z" fill="#70B2FF"></path><path d="M36.4583 32.0834C37.2637 32.0834 37.9167 31.4305 37.9167 30.6251C37.9167 29.8197 37.2637 29.1667 36.4583 29.1667C35.6529 29.1667 35 29.8197 35 30.6251C35 31.4305 35.6529 32.0834 36.4583 32.0834Z" fill="#70B2FF"></path><path d="M45.7923 32.0834C46.5977 32.0834 47.2507 31.4305 47.2507 30.6251C47.2507 29.8197 46.5977 29.1667 45.7923 29.1667C44.9869 29.1667 44.334 29.8197 44.334 30.6251C44.334 31.4305 44.9869 32.0834 45.7923 32.0834Z" fill="#70B2FF"></path></svg>