<svg xmlns="http://www.w3.org/2000/svg" width="92" height="70" viewBox="0 0 92 70" fill="none"><path d="M32.2 43.75C21.436 43.75 0 49.6 0 61.25V70H64.4V61.25C64.4 49.6 42.964 43.75 32.2 43.75ZM10.764 60C14.628 57.1 23.966 53.75 32.2 53.75C40.434 53.75 49.772 57.1 53.636 60H10.764ZM32.2 35C41.078 35 48.3 27.15 48.3 17.5C48.3 7.85 41.078 0 32.2 0C23.322 0 16.1 7.85 16.1 17.5C16.1 27.15 23.322 35 32.2 35ZM32.2 10C36.018 10 39.1 13.35 39.1 17.5C39.1 21.65 36.018 25 32.2 25C28.382 25 25.3 21.65 25.3 17.5C25.3 13.35 28.382 10 32.2 10ZM64.584 44.05C69.92 48.25 73.6 53.85 73.6 61.25V70H92V61.25C92 51.15 75.9 45.4 64.584 44.05ZM59.8 35C68.678 35 75.9 27.15 75.9 17.5C75.9 7.85 68.678 0 59.8 0C57.316 0 55.016 0.65 52.9 1.75C55.798 6.2 57.5 11.65 57.5 17.5C57.5 23.35 55.798 28.8 52.9 33.25C55.016 34.35 57.316 35 59.8 35Z" fill="#2954E8"></path></svg>