<svg xmlns="http://www.w3.org/2000/svg" width="75" height="89" viewBox="0 0 75 89" fill="none"><path d="M36.8119 55.3996C36.8119 49.957 41.371 45.5345 46.9818 45.5345H48.732V37.9559C48.732 34.0126 45.422 30.8087 41.364 30.8087H30.6507C26.5856 30.8087 23.2756 34.0195 23.2756 37.9559V77.3684C23.2756 81.3117 26.5856 84.5156 30.6507 84.5156H37.2424C36.9601 83.6119 36.8119 82.6603 36.8119 81.6677V55.3996Z" fill="#2954E8"></path><path d="M46.9817 48.0746C42.8178 48.0746 39.4302 51.3607 39.4302 55.3998V81.6748C39.4302 85.7139 42.8178 89 46.9817 89H67.4485C71.6124 89 75 85.7139 75 81.6748V55.3998C75 51.3607 71.6124 48.0746 67.4485 48.0746H63.828C63.581 47.1709 63.461 46.3357 63.4398 45.5347C63.3834 42.7689 64.5973 40.4687 66.2769 37.7098C67.5896 35.5533 68.0413 33.1024 67.5896 30.6241C67.1803 28.365 66.0088 26.1811 64.2938 24.4764C62.4729 22.6691 60.2004 21.4984 57.7091 21.0945C54.9638 20.6495 52.0984 21.1767 49.4307 22.6212C46.5654 24.1684 44.1376 25.2637 41.1734 24.0931C40.3406 23.7644 39.7972 23.2441 39.522 22.5116C38.9927 21.1219 39.3949 19.0475 40.6512 16.6788C44.4058 9.60691 41.8651 5.48562 40.0231 3.65773C37.8917 1.54916 34.5464 0.262115 30.6084 0.036197C26.8891 -0.176029 23.0639 0.549647 19.8386 2.09C14.1009 4.82155 11.2708 9.58637 12.0613 15.159C12.8376 20.6084 11.6519 25.6813 10.5227 28.9743C10.2969 29.6315 10.064 30.2408 9.83815 30.809H7.36803C6.83871 30.809 6.32352 30.8637 5.82243 30.9664C2.49835 31.6579 0 34.5332 0 37.9562V77.3686C0 81.3119 3.30997 84.5227 7.36803 84.5227H24.3766C22.0476 83.2562 20.4738 80.8327 20.4738 78.0669V37.2648C20.4738 34.499 22.0476 32.0755 24.3766 30.809H13.6774C13.7551 30.6036 13.8256 30.3914 13.9033 30.1791C15.1736 26.5097 16.5075 20.8412 15.6253 14.6798C14.849 9.23038 18.9211 6.41667 21.4195 5.22547C24.059 3.9658 27.3266 3.34966 30.3896 3.52766C33.4384 3.70565 35.9438 4.61617 37.44 6.09491C40.0231 8.64847 38.8656 12.3864 37.44 15.07C35.6898 18.3698 35.2381 21.3615 36.1344 23.7165C36.7696 25.3733 38.0399 26.6192 39.8043 27.3175C41.1523 27.8515 42.4297 28.0706 43.6365 28.0706C46.4101 28.0706 48.859 26.9136 51.1739 25.6608C55.606 23.2647 59.5229 24.7297 61.7107 26.9068C63.8703 29.0496 65.1548 32.6711 63.1716 35.9298C61.8801 38.0521 60.6733 40.1675 60.1299 42.6115C59.9181 43.5699 59.8193 44.5421 59.8334 45.5279C59.8476 46.3631 59.9464 47.2052 60.1228 48.0678H46.9817V48.0746ZM48.3015 82.7838C47.1582 82.7838 46.2266 81.8802 46.2266 80.7711C46.2266 79.6621 47.1582 78.7584 48.3015 78.7584C49.4448 78.7584 50.3764 79.6621 50.3764 80.7711C50.3764 81.8802 49.4448 82.7838 48.3015 82.7838ZM57.2151 84.023C55.359 84.023 53.8557 82.5648 53.8557 80.7643C53.8557 78.9638 55.359 77.5056 57.2151 77.5056C59.0712 77.5056 60.5745 78.9638 60.5745 80.7643C60.5745 82.5648 59.0712 84.023 57.2151 84.023ZM66.1358 82.7838C64.9925 82.7838 64.0609 81.8802 64.0609 80.7711C64.0609 79.6621 64.9925 78.7584 66.1358 78.7584C67.2791 78.7584 68.2107 79.6621 68.2107 80.7711C68.2107 81.8802 67.2791 82.7838 66.1358 82.7838ZM67.5826 53.8869C68.1966 53.8869 68.6906 54.3661 68.6906 54.9617V72.1931C68.6906 72.7887 68.1966 73.2679 67.5826 73.2679H46.8547C46.2407 73.2679 45.7467 72.7887 45.7467 72.1931V54.9617C45.7467 54.3661 46.2407 53.8869 46.8547 53.8869H67.5826Z" fill="#2954E8"></path></svg>