<svg xmlns="http://www.w3.org/2000/svg" width="130" height="121" viewBox="0 0 130 121" fill="none"><path d="M47.2727 120.197H100.455C105.359 120.197 109.555 117.197 111.327 112.876L129.173 70.5649C129.705 69.1845 130 67.7441 130 66.1838V54.1807C130 47.579 124.682 42.1777 118.182 42.1777H80.8955L86.5091 14.7507L86.6864 12.8302C86.6864 10.3696 85.6818 8.089 84.0864 6.46859L77.8227 0.166992L38.8818 39.717C36.7545 41.8776 35.4545 44.8783 35.4545 48.1792V108.194C35.4545 114.796 40.7727 120.197 47.2727 120.197ZM47.2727 48.1792L72.9182 22.1326L65 54.1807H118.182V66.1838L100.455 108.194H47.2727V48.1792ZM0 48.1792H23.6364V120.197H0V48.1792Z" fill="#5E87FB" fill-opacity="0.15"></path></svg>