<svg xmlns="http://www.w3.org/2000/svg" width="77" height="77" viewBox="0 0 77 77" fill="none"><path d="M29.375 58.7778L26.3333 70.9444L22.2778 75H54.7222L50.6667 70.9444L47.625 58.7778H29.375ZM2 42.5556H75H2ZM10.1111 58.7778H66.8889C69.0401 58.7778 71.1032 57.9232 72.6243 56.4021C74.1454 54.881 75 52.8179 75 50.6667V10.1111C75 7.95991 74.1454 5.89682 72.6243 4.37569C71.1032 2.85456 69.0401 2 66.8889 2H10.1111C7.95991 2 5.89682 2.85456 4.37569 4.37569C2.85456 5.89682 2 7.95991 2 10.1111V50.6667C2 52.8179 2.85456 54.881 4.37569 56.4021C5.89682 57.9232 7.95991 58.7778 10.1111 58.7778Z" stroke="#2954E8" stroke-width="3" stroke-linecap="round" stroke-linejoin="round"></path></svg>