<svg xmlns="http://www.w3.org/2000/svg" width="79" height="79" viewBox="0 0 79 79" fill="none"><path fill-rule="evenodd" clip-rule="evenodd" d="M18.5049 60.2187C16.619 61.3765 15.3611 63.4579 15.3611 65.8331C15.3611 69.4689 18.3085 72.4165 21.9444 72.4165C25.5804 72.4165 28.5278 69.4689 28.5278 65.8331C28.5278 62.4886 26.034 59.7267 22.8044 59.3053C22.7325 59.0477 22.6574 58.7506 22.5811 58.417C22.3182 57.2684 22.0673 55.8116 21.8806 54.3147C21.6934 52.8155 21.5773 51.3287 21.5696 50.1152C21.5668 49.6706 21.5788 49.2831 21.6034 48.9581C22.4476 48.7158 23.2942 48.4975 24.1389 48.3052C25.1073 48.0847 25.6805 49.2278 26.1448 50.1541C26.2096 50.2829 26.2721 50.4077 26.3333 50.524H35.2513C37.261 50.5236 38.2544 50.5238 39.2593 50.524C40.2411 50.5243 41.2349 50.5245 43.1979 50.524H52.1165C52.6173 49.5725 53.7577 48.054 54.8611 48.3052C56.038 48.5732 57.219 48.8914 58.3917 49.2552L58.3845 49.259C58.3819 49.2539 58.3821 49.2548 58.3847 49.262C58.395 49.293 58.4433 49.4363 58.4912 49.7474C58.5458 50.1018 58.5838 50.5622 58.5993 51.1163C58.6305 52.2232 58.5684 53.5684 58.4374 54.9237C58.3062 56.2777 58.1113 57.5884 57.8919 58.6229C57.8434 58.852 57.7949 59.0613 57.7472 59.2498H54.8611C54.0299 59.2498 53.2701 59.7194 52.8984 60.4629L50.704 64.8518C50.5514 65.1564 50.4722 65.4923 50.4722 65.8331V70.222C50.4722 71.434 51.4547 72.4165 52.6667 72.4165H57.0556V68.0276H54.8611V66.351L56.2173 63.6387H62.2827L63.6389 66.351V68.0276H61.4444V72.4165H65.8333C67.0453 72.4165 68.0278 71.434 68.0278 70.222V65.8331C68.0278 65.4923 67.9486 65.1564 67.796 64.8518L65.6016 60.4629C65.2299 59.7194 64.4701 59.2498 63.6389 59.2498H62.2439C62.4782 58.0808 62.6733 56.7148 62.8057 55.3466C62.949 53.8675 63.024 52.3325 62.9865 50.9934L62.9847 50.9331C71.7353 54.6301 79 60.7115 79 67.0838V78.9998H0V67.0838C0 60.4295 7.92179 54.0927 17.1847 50.4567C17.2097 51.8207 17.339 53.3648 17.5253 54.8583C17.7265 56.4703 18.0008 58.0764 18.303 59.3966C18.3677 59.6795 18.4351 59.9549 18.5049 60.2187ZM21.9444 68.0599C23.1259 68.0599 24.1389 67.0932 24.1389 65.8331C24.1389 64.5729 23.1259 63.6064 21.9444 63.6064C20.763 63.6064 19.75 64.5729 19.75 65.8331C19.75 67.0932 20.763 68.0599 21.9444 68.0599Z" fill="#2954E8"></path><mask id="mask0_1_13051" style="mask-type:luminance" maskUnits="userSpaceOnUse" x="0" y="48" width="79" height="31"><path fill-rule="evenodd" clip-rule="evenodd" d="M18.5049 60.2187C16.619 61.3765 15.3611 63.4579 15.3611 65.8331C15.3611 69.4689 18.3085 72.4165 21.9444 72.4165C25.5804 72.4165 28.5278 69.4689 28.5278 65.8331C28.5278 62.4886 26.034 59.7267 22.8044 59.3053C22.7325 59.0477 22.6574 58.7506 22.5811 58.417C22.3182 57.2684 22.0673 55.8116 21.8806 54.3147C21.6934 52.8155 21.5773 51.3287 21.5696 50.1152C21.5668 49.6706 21.5788 49.2831 21.6034 48.9581C22.4476 48.7158 23.2942 48.4975 24.1389 48.3052C25.1073 48.0847 25.6805 49.2278 26.1448 50.1541C26.2096 50.2829 26.2721 50.4077 26.3333 50.524H35.2513C37.261 50.5236 38.2544 50.5238 39.2593 50.524C40.2411 50.5243 41.2349 50.5245 43.1979 50.524H52.1165C52.6173 49.5725 53.7577 48.054 54.8611 48.3052C56.038 48.5732 57.219 48.8914 58.3917 49.2552L58.3845 49.259C58.3819 49.2539 58.3821 49.2548 58.3847 49.262C58.395 49.293 58.4433 49.4363 58.4912 49.7474C58.5458 50.1018 58.5838 50.5622 58.5993 51.1163C58.6305 52.2232 58.5684 53.5684 58.4374 54.9237C58.3062 56.2777 58.1113 57.5884 57.8919 58.6229C57.8434 58.852 57.7949 59.0613 57.7472 59.2498H54.8611C54.0299 59.2498 53.2701 59.7194 52.8984 60.4629L50.704 64.8518C50.5514 65.1564 50.4722 65.4923 50.4722 65.8331V70.222C50.4722 71.434 51.4547 72.4165 52.6667 72.4165H57.0556V68.0276H54.8611V66.351L56.2173 63.6387H62.2827L63.6389 66.351V68.0276H61.4444V72.4165H65.8333C67.0453 72.4165 68.0278 71.434 68.0278 70.222V65.8331C68.0278 65.4923 67.9486 65.1564 67.796 64.8518L65.6016 60.4629C65.2299 59.7194 64.4701 59.2498 63.6389 59.2498H62.2439C62.4782 58.0808 62.6733 56.7148 62.8057 55.3466C62.949 53.8675 63.024 52.3325 62.9865 50.9934L62.9847 50.9331C71.7353 54.6301 79 60.7115 79 67.0838V78.9998H0V67.0838C0 60.4295 7.92179 54.0927 17.1847 50.4567C17.2097 51.8207 17.339 53.3648 17.5253 54.8583C17.7265 56.4703 18.0008 58.0764 18.303 59.3966C18.3677 59.6795 18.4351 59.9549 18.5049 60.2187ZM21.9444 68.0599C23.1259 68.0599 24.1389 67.0932 24.1389 65.8331C24.1389 64.5729 23.1259 63.6064 21.9444 63.6064C20.763 63.6064 19.75 64.5729 19.75 65.8331C19.75 67.0932 20.763 68.0599 21.9444 68.0599Z" fill="white"></path></mask><g mask="url(#mask0_1_13051)"><path d="M18.5051 60.2185L20.8014 63.9587L23.5815 62.2519L22.7483 59.0976L18.5051 60.2185ZM22.8047 59.3052L18.5773 60.4849L19.3576 63.2817L22.237 63.6572L22.8047 59.3052ZM21.6036 48.9579L20.3927 44.7393L17.457 45.582L17.227 48.6277L21.6036 48.9579ZM26.3335 50.5239L22.45 52.5685L23.6842 54.9128H26.3335V50.5239ZM52.1167 50.5239V54.9128H54.7661L56.0002 52.5685L52.1167 50.5239ZM58.392 49.2551L60.3547 53.1807L70.1202 48.2983L59.6924 45.0632L58.392 49.2551ZM58.3847 49.2588L54.4606 51.2248L56.4251 55.1454L60.3472 53.1844L58.3847 49.2588ZM58.3849 49.2619L62.6608 48.2728L62.6128 48.0648L62.5447 47.8625L58.3849 49.2619ZM58.3849 49.2619L54.1089 50.2511L54.1576 50.4616L54.2267 50.6663L58.3849 49.2619ZM58.3849 49.2619L62.5447 47.8625L62.5432 47.8576L58.3849 49.2619ZM57.7475 59.2497V63.6385H61.1657L62.0027 60.3243L57.7475 59.2497ZM57.0558 72.4163V76.8052H61.4447V72.4163H57.0558ZM57.0558 68.0274H61.4447V63.6385H57.0558V68.0274ZM54.8613 68.0274H50.4724V72.4163H54.8613V68.0274ZM54.8613 66.3509L50.9357 64.3882L50.4724 65.3149V66.3509H54.8613ZM56.2175 63.6385V59.2497H53.5052L52.2921 61.6756L56.2175 63.6385ZM62.2829 63.6385L66.2084 61.6756L64.9953 59.2497H62.2829V63.6385ZM63.6391 66.3509H68.028V65.3149L67.5647 64.3882L63.6391 66.3509ZM63.6391 68.0274V72.4163H68.028V68.0274H63.6391ZM61.4447 68.0274V63.6385H57.0558V68.0274H61.4447ZM61.4447 72.4163H57.0558V76.8052H61.4447V72.4163ZM62.2441 59.2497L57.941 58.3864L56.8875 63.6385H62.2441V59.2497ZM62.9867 50.9933L67.3738 50.8702V50.8645L62.9867 50.9933ZM62.9849 50.9329L64.6931 46.8901L58.3975 44.23L58.598 51.0617L62.9849 50.9329ZM79.0002 78.9997V83.3885H83.3891V78.9997H79.0002ZM0.000216961 78.9997H-4.38867V83.3885H0.000216961V78.9997ZM17.1849 50.4565L21.5731 50.3764L21.4582 44.0641L15.5812 46.3711L17.1849 50.4565ZM19.7502 65.833C19.7502 65.0463 20.1612 64.3517 20.8014 63.9587L16.2086 56.4783C13.0769 58.4011 10.9724 61.8694 10.9724 65.833H19.7502ZM21.9447 68.0274C20.7327 68.0274 19.7502 67.045 19.7502 65.833H10.9724C10.9724 71.8927 15.8849 76.8052 21.9447 76.8052V68.0274ZM24.1391 65.833C24.1391 67.045 23.1567 68.0274 21.9447 68.0274V76.8052C28.0044 76.8052 32.9169 71.8927 32.9169 65.833H24.1391ZM22.237 63.6572C23.3089 63.7972 24.1391 64.7215 24.1391 65.833H32.9169C32.9169 60.2554 28.7593 55.656 23.3724 54.9532L22.237 63.6572ZM27.032 58.1257C26.9818 57.9455 26.9234 57.716 26.8596 57.4375L18.3032 59.3965C18.3921 59.7847 18.4838 60.1496 18.5773 60.4849L27.032 58.1257ZM26.8596 57.4375C26.6359 56.4603 26.4082 55.1524 26.2359 53.7712L17.5255 54.8581C17.7267 56.4702 18.001 58.0763 18.3032 59.3965L26.8596 57.4375ZM26.2359 53.7712C26.0625 52.3817 25.9649 51.0762 25.9587 50.0876L17.1812 50.1427C17.1902 51.581 17.3247 53.2487 17.5255 54.8581L26.2359 53.7712ZM25.9587 50.0876C25.9565 49.7317 25.9666 49.467 25.98 49.2882L17.227 48.6277C17.1915 49.0988 17.1777 49.6095 17.1812 50.1427L25.9587 50.0876ZM23.1646 44.0257C22.2387 44.2366 21.3133 44.4751 20.3927 44.7393L22.8145 53.1765C23.5824 52.956 24.3502 52.7583 25.1137 52.5845L23.1646 44.0257ZM30.0685 48.1866C29.9008 47.8524 29.4025 46.8006 28.6553 45.9338C27.8227 44.968 25.9138 43.3998 23.1646 44.0257L25.1137 52.5845C24.3801 52.7515 23.6124 52.6571 22.9629 52.3584C22.3985 52.0991 22.0939 51.7659 22.007 51.665C21.9131 51.5564 21.9003 51.5142 21.9646 51.6266C22.0276 51.7363 22.0965 51.8713 22.2218 52.121L30.0685 48.1866ZM30.2171 48.4793C30.18 48.4087 30.1374 48.3242 30.0685 48.1866L22.2218 52.121C22.2822 52.2415 22.3647 52.4065 22.45 52.5685L30.2171 48.4793ZM35.2516 46.135H26.3335V54.9128H35.2516V46.135ZM39.2612 46.135C38.256 46.1348 37.2621 46.1346 35.2516 46.135V54.9128C37.2603 54.9123 38.254 54.9126 39.2586 54.9128L39.2612 46.135ZM43.1981 46.135C41.236 46.1354 40.2426 46.1352 39.2612 46.135L39.2586 54.9128C40.2406 54.913 41.2351 54.9132 43.199 54.9128L43.1981 46.135ZM52.1167 46.135H43.1981L43.199 54.9128H52.1167V46.135ZM55.8359 44.0257C52.9939 43.3786 50.9363 45.1117 50.2205 45.8006C49.3013 46.6847 48.6306 47.724 48.233 48.4793L56.0002 52.5685C56.0356 52.5015 56.0968 52.3984 56.1723 52.2926C56.2081 52.2426 56.2405 52.2013 56.2671 52.1697C56.2943 52.1375 56.3081 52.1243 56.3057 52.1265C56.3046 52.1276 56.273 52.1583 56.2081 52.2051C56.1446 52.2507 56.0237 52.3306 55.844 52.4118C55.4762 52.5779 54.7665 52.7846 53.8868 52.5845L55.8359 44.0257ZM59.6924 45.0632C58.4155 44.6671 57.1256 44.3195 55.8359 44.0257L53.8868 52.5845C54.9506 52.8267 56.0231 53.1155 57.0915 53.4469L59.6924 45.0632ZM60.3472 53.1844L60.3547 53.1807L56.4293 45.3294L56.422 45.3331L60.3472 53.1844ZM62.5447 47.8625C62.5404 47.8495 62.5493 47.8763 62.5583 47.9039C62.5623 47.9162 62.5781 47.9647 62.5965 48.0275C62.6055 48.0589 62.6231 48.1203 62.6426 48.1984C62.6549 48.248 62.7023 48.4381 62.7348 48.6863C62.7493 48.7977 62.7835 49.0819 62.7677 49.4464C62.7635 49.539 62.7583 50.8493 61.7679 52.0492C61.1197 52.8346 60.1271 53.4686 58.8991 53.6139C57.8102 53.7429 56.9632 53.4366 56.5241 53.2314C55.7246 52.8577 55.2513 52.333 55.1648 52.2399C54.8758 51.9281 54.6981 51.64 54.6774 51.6075C54.6184 51.5142 54.5754 51.4388 54.5563 51.4047C54.5164 51.3334 54.4872 51.2768 54.4808 51.2645C54.4705 51.2441 54.4626 51.2283 54.4606 51.2248L62.3086 47.2928C62.3062 47.288 62.2976 47.2711 62.2869 47.2498C62.2801 47.2366 62.2505 47.1791 62.2103 47.1076C62.191 47.0731 62.148 46.9974 62.0887 46.9042C62.0679 46.8712 61.8904 46.5831 61.6011 46.2713C61.5147 46.1782 61.0413 45.6535 60.2419 45.2798C59.8028 45.0744 58.9555 44.7681 57.8666 44.8971C56.6388 45.0426 55.6463 45.6764 54.998 46.462C54.0077 47.6619 54.0022 48.9722 53.9983 49.0648C53.9822 49.4293 54.0165 49.7137 54.0312 49.8252C54.0636 50.0734 54.111 50.2636 54.1233 50.3134C54.1429 50.3918 54.1604 50.4537 54.1696 50.485C54.1883 50.5487 54.2043 50.5978 54.2087 50.6114C54.2148 50.6308 54.2201 50.6461 54.2216 50.6509C54.2227 50.6542 54.2236 50.6571 54.2241 50.6584C54.2247 50.6599 54.2252 50.6613 54.2252 50.6615L62.5447 47.8625ZM62.8291 49.0791C62.7407 48.5043 62.6303 48.1166 62.5447 47.8625L54.2252 50.6615C54.2252 50.6615 54.2192 50.6444 54.2124 50.6226C54.2056 50.6014 54.1988 50.5796 54.1922 50.5577C54.1791 50.5136 54.1694 50.4769 54.1624 50.4486C54.1486 50.3927 54.1481 50.3786 54.1538 50.4157L62.8291 49.0791ZM62.9867 50.9933C62.968 50.3246 62.9204 49.6707 62.8291 49.0791L54.1538 50.4157C54.1718 50.5324 54.2001 50.7995 54.2124 51.2393L62.9867 50.9933ZM62.8059 55.3464C62.9492 53.8673 63.0242 52.3323 62.9867 50.9933L54.2124 51.2393C54.237 52.1138 54.1883 53.2689 54.0691 54.5009L62.8059 55.3464ZM62.1855 59.5336C62.4462 58.3052 62.6628 56.827 62.8059 55.3464L54.0691 54.5009C53.9502 55.728 53.7771 56.8715 53.5989 57.712L62.1855 59.5336ZM62.0027 60.3243C62.0657 60.075 62.1267 59.8108 62.1855 59.5336L53.5989 57.712C53.5605 57.8931 53.5245 58.0473 53.4922 58.1748L62.0027 60.3243ZM54.8613 63.6385H57.7475V54.8608H54.8613V63.6385ZM56.824 62.4255C56.4523 63.1689 55.6926 63.6385 54.8613 63.6385V54.8608C52.3678 54.8608 50.0882 56.2696 48.973 58.4998L56.824 62.4255ZM54.6296 66.8144L56.824 62.4255L48.973 58.4998L46.7785 62.8887L54.6296 66.8144ZM54.8613 65.833C54.8613 66.1736 54.7821 66.5095 54.6296 66.8144L46.7785 62.8887C46.3214 63.8029 46.0835 64.8108 46.0835 65.833H54.8613ZM54.8613 70.2219V65.833H46.0835V70.2219H54.8613ZM52.6669 68.0274C53.8789 68.0274 54.8613 69.0099 54.8613 70.2219H46.0835C46.0835 73.8576 49.0309 76.8052 52.6669 76.8052V68.0274ZM57.0558 68.0274H52.6669V76.8052H57.0558V68.0274ZM52.6669 68.0274V72.4163H61.4447V68.0274H52.6669ZM54.8613 72.4163H57.0558V63.6385H54.8613V72.4163ZM50.4724 66.3509V68.0274H59.2502V66.3509H50.4724ZM52.2921 61.6756L50.9357 64.3882L58.787 68.3138L60.1431 65.6013L52.2921 61.6756ZM62.2829 59.2497H56.2175V68.0274H62.2829V59.2497ZM67.5647 64.3882L66.2084 61.6756L58.3573 65.6013L59.7135 68.3138L67.5647 64.3882ZM68.028 68.0274V66.3509H59.2502V68.0274H68.028ZM61.4447 72.4163H63.6391V63.6385H61.4447V72.4163ZM65.8335 72.4163V68.0274H57.0558V72.4163H65.8335ZM65.8335 68.0274H61.4447V76.8052H65.8335V68.0274ZM63.6391 70.2219C63.6391 69.0099 64.6216 68.0274 65.8335 68.0274V76.8052C69.4695 76.8052 72.4169 73.8576 72.4169 70.2219H63.6391ZM63.6391 65.833V70.2219H72.4169V65.833H63.6391ZM63.8708 66.8144C63.7183 66.5095 63.6391 66.1736 63.6391 65.833H72.4169C72.4169 64.8108 72.179 63.8029 71.7219 62.8887L63.8708 66.8144ZM61.6764 62.4255L63.8708 66.8144L71.7219 62.8887L69.5275 58.4998L61.6764 62.4255ZM63.6391 63.6385C62.8078 63.6385 62.0481 63.1689 61.6764 62.4255L69.5275 58.4998C68.4122 56.2696 66.1327 54.8608 63.6391 54.8608V63.6385ZM62.2441 63.6385H63.6391V54.8608H62.2441V63.6385ZM58.4376 54.9235C58.3167 56.1717 58.1411 57.3881 57.941 58.3864L66.5472 60.1127C66.816 58.7732 67.0304 57.2575 67.1744 55.7691L58.4376 54.9235ZM58.5996 51.1162C58.6307 52.223 58.5686 53.5682 58.4376 54.9235L67.1744 55.7691C67.3295 54.1667 67.4179 52.4414 67.3738 50.8702L58.5996 51.1162ZM58.598 51.0617L58.5998 51.1221L67.3738 50.8645L67.3721 50.8041L58.598 51.0617ZM83.3891 67.0836C83.3891 62.195 80.6344 58.0105 77.3052 54.8309C73.9124 51.591 69.4158 48.8853 64.6931 46.8901L61.2768 54.9758C65.3047 56.6776 68.8156 58.861 71.2429 61.179C73.7336 63.5576 74.6113 65.5997 74.6113 67.0836H83.3891ZM83.3891 78.9997V67.0836H74.6113V78.9997H83.3891ZM0.000216961 83.3885H79.0002V74.6108H0.000216961V83.3885ZM-4.38867 67.0836V78.9997H4.38911V67.0836H-4.38867ZM15.5812 46.3711C10.5871 48.3314 5.7887 51.0778 2.15683 54.3997C-1.3947 57.6482 -4.38867 61.9835 -4.38867 67.0836H4.38911C4.38911 65.5295 5.35604 63.3693 8.08113 60.8766C10.7258 58.4577 14.52 56.2174 18.7886 54.5419L15.5812 46.3711ZM12.7969 50.5364C12.8252 52.0973 12.9709 53.8022 13.1704 55.4015L21.8808 54.3146C21.7074 52.9268 21.5944 51.5436 21.5731 50.3764L12.7969 50.5364ZM13.1704 55.4015C13.3861 57.1292 13.6835 58.8843 14.0249 60.3761L22.5813 58.4169C22.3184 57.2683 22.0675 55.8114 21.8808 54.3146L13.1704 55.4015ZM14.0249 60.3761C14.0991 60.6991 14.1779 61.0223 14.2617 61.3396L22.7483 59.0976C22.6927 58.8871 22.637 58.6596 22.5813 58.4169L14.0249 60.3761ZM19.7502 65.833C19.7502 64.6508 20.7206 63.6708 21.9447 63.6708V72.4486C25.5317 72.4486 28.528 69.5352 28.528 65.833H19.7502ZM21.9447 67.9952C20.7206 67.9952 19.7502 67.0149 19.7502 65.833H28.528C28.528 62.1305 25.5317 59.2174 21.9447 59.2174V67.9952ZM24.1391 65.833C24.1391 67.0149 23.1687 67.9952 21.9447 67.9952V59.2174C18.3576 59.2174 15.3613 62.1305 15.3613 65.833H24.1391ZM21.9447 63.6708C23.1687 63.6708 24.1391 64.6508 24.1391 65.833H15.3613C15.3613 69.5352 18.3576 72.4486 21.9447 72.4486V63.6708Z" fill="#2954E8"></path></g><path d="M15.3613 31.0994C15.3613 41.2788 32.8949 43.8889 32.8949 43.8889C32.8949 43.8889 21.4261 24.1826 27.4308 20.7895C33.4354 17.3962 48.1742 11.5105 49.3752 13.8597C60.4238 30.5642 47.3063 43.8889 47.3063 43.8889C47.3063 43.8889 63.6391 42.3229 63.6391 31.0994C63.6391 19.876 55.9531 6.92981 55.9531 6.92981C55.9531 6.92981 50.4288 0 39.6203 0C28.812 0 24.9688 6.92981 24.9688 6.92981C24.9688 6.92981 15.3613 20.9201 15.3613 31.0994Z" fill="#2954E8"></path></svg>