<svg xmlns="http://www.w3.org/2000/svg" width="67" height="71" viewBox="0 0 67 71" fill="none"><path d="M12.3418 1.76316C12.3418 0.789401 13.1312 0 14.105 0C15.0787 0 15.8681 0.789401 15.8681 1.76316V12.3421C15.8681 13.3159 15.0787 14.1053 14.105 14.1053C13.1312 14.1053 12.3418 13.3159 12.3418 12.3421V1.76316Z" fill="#4E74F7"></path><path d="M40.5527 1.76316C40.5527 0.789401 41.3421 0 42.3159 0C43.2897 0 44.0791 0.789401 44.0791 1.76316V12.3421C44.0791 13.3159 43.2897 14.1053 42.3159 14.1053C41.3421 14.1053 40.5527 13.3159 40.5527 12.3421V1.76316Z" fill="#4E74F7"></path><path fill-rule="evenodd" clip-rule="evenodd" d="M15.8681 33.4999H12.3417V37.0263H15.8681V33.4999ZM12.3417 29.9736C10.3942 29.9736 8.81543 31.5524 8.81543 33.4999V37.0263C8.81543 38.9738 10.3942 40.5526 12.3417 40.5526H15.8681C17.8156 40.5526 19.3944 38.9738 19.3944 37.0263V33.4999C19.3944 31.5524 17.8156 29.9736 15.8681 29.9736H12.3417Z" fill="#4E74F7"></path><path fill-rule="evenodd" clip-rule="evenodd" d="M29.9735 33.4999H26.4472V37.0263H29.9735V33.4999ZM26.4472 29.9736C24.4996 29.9736 22.9209 31.5524 22.9209 33.4999V37.0263C22.9209 38.9738 24.4996 40.5526 26.4472 40.5526H29.9735C31.9211 40.5526 33.4998 38.9738 33.4998 37.0263V33.4999C33.4998 31.5524 31.9211 29.9736 29.9735 29.9736H26.4472Z" fill="#4E74F7"></path><path fill-rule="evenodd" clip-rule="evenodd" d="M44.079 33.4999H40.5527V37.0263H44.079V33.4999ZM40.5527 29.9736C38.6051 29.9736 37.0264 31.5524 37.0264 33.4999V37.0263C37.0264 38.9738 38.6051 40.5526 40.5527 40.5526H44.079C46.0266 40.5526 47.6053 38.9738 47.6053 37.0263V33.4999C47.6053 31.5524 46.0266 29.9736 44.079 29.9736H40.5527Z" fill="#4E74F7"></path><path fill-rule="evenodd" clip-rule="evenodd" d="M15.8681 47.6052H12.3417V51.1315H15.8681V47.6052ZM12.3417 44.0789C10.3942 44.0789 8.81543 45.6576 8.81543 47.6052V51.1315C8.81543 53.0791 10.3942 54.6578 12.3417 54.6578H15.8681C17.8156 54.6578 19.3944 53.0791 19.3944 51.1315V47.6052C19.3944 45.6576 17.8156 44.0789 15.8681 44.0789H12.3417Z" fill="#4E74F7"></path><path fill-rule="evenodd" clip-rule="evenodd" d="M29.9735 47.6052H26.4472V51.1315H29.9735V47.6052ZM26.4472 44.0789C24.4996 44.0789 22.9209 45.6576 22.9209 47.6052V51.1315C22.9209 53.0791 24.4996 54.6578 26.4472 54.6578H29.9735C31.9211 54.6578 33.4998 53.0791 33.4998 51.1315V47.6052C33.4998 45.6576 31.9211 44.0789 29.9735 44.0789H26.4472Z" fill="#4E74F7"></path><path fill-rule="evenodd" clip-rule="evenodd" d="M7.05263 10.5791H49.3684C51.316 10.5791 52.8947 12.1578 52.8947 14.1054V42.3159C54.1124 42.3159 55.294 42.4702 56.4211 42.7602V14.1054C56.4211 10.2103 53.2634 7.05273 49.3684 7.05273H7.05263C3.15757 7.05273 0 10.2103 0 14.1054V56.4212C0 60.3161 3.15757 63.4738 7.05263 63.4738H40.6766C40.0452 62.3824 39.5559 61.1984 39.2338 59.9475H7.05263C5.1051 59.9475 3.52632 58.3687 3.52632 56.4212V14.1054C3.52632 12.1578 5.1051 10.5791 7.05263 10.5791Z" fill="#4E74F7"></path><path d="M0 14.1054C0 10.2103 3.15757 7.05273 7.05263 7.05273H49.3684C53.2634 7.05273 56.4211 10.2103 56.4211 14.1054V26.4475H0V14.1054Z" fill="#4E74F7"></path><path fill-rule="evenodd" clip-rule="evenodd" d="M49.3684 10.5791H7.05263C5.1051 10.5791 3.52632 12.1578 3.52632 14.1054V22.9212H52.8947V14.1054C52.8947 12.1578 51.316 10.5791 49.3684 10.5791ZM7.05263 7.05273C3.15757 7.05273 0 10.2103 0 14.1054V26.4475H56.4211V14.1054C56.4211 10.2103 53.2634 7.05273 49.3684 7.05273H7.05263Z" fill="#4E74F7"></path><path fill-rule="evenodd" clip-rule="evenodd" d="M54.6574 26.4475H1.7627V22.9211H54.6574V26.4475Z" fill="#4E74F7"></path><path fill-rule="evenodd" clip-rule="evenodd" d="M52.8943 66.9999C58.7369 66.9999 63.4733 62.2635 63.4733 56.4209C63.4733 50.5784 58.7369 45.842 52.8943 45.842C47.0517 45.842 42.3154 50.5784 42.3154 56.4209C42.3154 62.2635 47.0517 66.9999 52.8943 66.9999ZM52.8943 70.5262C60.6845 70.5262 66.9996 64.2111 66.9996 56.4209C66.9996 48.6308 60.6845 42.3157 52.8943 42.3157C45.1042 42.3157 38.7891 48.6308 38.7891 56.4209C38.7891 64.2111 45.1042 70.5262 52.8943 70.5262Z" fill="#4E74F7"></path><path fill-rule="evenodd" clip-rule="evenodd" d="M52.895 47.9204C53.8688 47.9204 54.6582 48.7098 54.6582 49.6836V57.2618L58.9805 60.2622C59.7805 60.8174 59.9788 61.916 59.4234 62.716C58.8682 63.5159 57.7696 63.7142 56.9697 63.159L51.1318 59.1068V49.6836C51.1318 48.7098 51.9212 47.9204 52.895 47.9204Z" fill="#4E74F7"></path></svg>