<svg xmlns="http://www.w3.org/2000/svg" width="70" height="100" viewBox="0 0 70 100" fill="none"><path d="M22.5005 27.5V35H15.0005V40H22.5005V47.5H27.5005V40H35.0005V35H27.5005V27.5H22.5005Z" fill="#2954E8"></path><path d="M17.5005 54.9998C16.1197 54.9998 15.0005 56.119 15.0005 57.4998C15.0005 58.8805 16.1197 59.9998 17.5005 59.9998H52.5005C53.8812 59.9998 55.0005 58.8805 55.0005 57.4998C55.0005 56.119 53.8812 54.9998 52.5005 54.9998H17.5005Z" fill="#2954E8"></path><path d="M15.0005 70C15.0005 68.6193 16.1197 67.5 17.5005 67.5H52.5005C53.8812 67.5 55.0005 68.6193 55.0005 70C55.0005 71.3807 53.8812 72.5 52.5005 72.5H17.5005C16.1197 72.5 15.0005 71.3807 15.0005 70Z" fill="#2954E8"></path><path d="M17.5005 80C16.1197 80 15.0005 81.1193 15.0005 82.5C15.0005 83.8807 16.1197 85 17.5005 85H52.5005C53.8812 85 55.0005 83.8807 55.0005 82.5C55.0005 81.1193 53.8812 80 52.5005 80H17.5005Z" fill="#2954E8"></path><path fill-rule="evenodd" clip-rule="evenodd" d="M17.5 7.5C17.5 3.35788 20.8577 0 25 0H45C49.1423 0 52.5 3.35788 52.5 7.5H62.5C66.6423 7.5 70 10.8579 70 15V92.5C70 96.6423 66.6423 100 62.5 100H7.5C3.35775 100 0 96.6423 0 92.5V15C0 10.8579 3.35775 7.5 7.5 7.5H17.5ZM45 20C49.1423 20 52.5 16.6423 52.5 12.5H62.5C63.8807 12.5 65 13.6193 65 15V92.5C65 93.8808 63.8807 95 62.5 95H7.5C6.11925 95 5 93.8808 5 92.5V15C5 13.6193 6.11925 12.5 7.5 12.5H17.5C17.5 16.6423 20.8577 20 25 20H45ZM25 5C23.6192 5 22.5 6.1193 22.5 7.5V12.5C22.5 13.8807 23.6192 15 25 15H45C46.3807 15 47.5 13.8807 47.5 12.5V7.5C47.5 6.1193 46.3807 5 45 5H25Z" fill="#2954E8"></path></svg>